<svg xmlns="http://www.w3.org/2000/svg" width="128" height="128" viewBox="0 0 128 128"><rect width="100%" height="100%" fill="#E1E7EF"/><path fill="#1F2937" d="M32.19 64.08h3.92q1.45 0 2.52-.36t1.78-1.03q.71-.68 1.06-1.64.36-.97.36-2.16 0-1.13-.36-2.04-.35-.92-1.05-1.57-.7-.64-1.77-.98-1.08-.34-2.54-.34h-3.92zM26.95 49.9h9.16q2.83 0 4.9.67 2.06.66 3.41 1.85 1.34 1.19 2 2.85.65 1.65.65 3.62 0 2.05-.68 3.76-.68 1.7-2.05 2.93-1.36 1.23-3.42 1.91t-4.81.68h-3.92v9.93h-5.24zm43.5 21.55q.43 0 .76.33l2.07 2.24q-1.72 2.13-4.22 3.26-2.51 1.13-6.02 1.13-3.14 0-5.64-1.07-2.51-1.07-4.28-2.98-1.78-1.92-2.72-4.57-.95-2.65-.95-5.79 0-3.18 1.01-5.82 1.02-2.64 2.86-4.55t4.4-2.98q2.55-1.06 5.65-1.06 3.08 0 5.47 1.01 2.39 1.02 4.07 2.66l-1.76 2.43q-.15.24-.4.41-.24.18-.67.18-.29 0-.6-.17-.32-.16-.69-.41-.37-.24-.85-.53-.49-.29-1.13-.54-.65-.24-1.5-.41-.84-.16-1.96-.16-1.89 0-3.46.67t-2.7 1.95-1.75 3.12q-.63 1.84-.63 4.2 0 2.38.68 4.23.67 1.86 1.82 3.12 1.15 1.27 2.71 1.94 1.56.68 3.35.68 1.08 0 1.94-.12.87-.12 1.6-.37.73-.26 1.39-.65.65-.4 1.29-.99.2-.17.41-.28.22-.11.45-.11m12.36-4h8.97l-3.43-9.38q-.25-.62-.52-1.48-.28-.86-.55-1.85-.25.99-.53 1.86-.27.87-.52 1.51zm7.16-17.55 11.08 28.2h-4.06q-.68 0-1.11-.34t-.64-.85l-2.11-5.75H81.45l-2.11 5.75q-.15.45-.6.82t-1.11.37h-4.1l11.1-28.2z"/></svg>